<svg width="25" height="24" viewBox="0 0 25 24" fill="none" xmlns="http://www.w3.org/2000/svg">
<path fill-rule="evenodd" clip-rule="evenodd" d="M5.86457 3C5.33474 2.99999 4.88351 2.99998 4.5131 3.03024C4.12394 3.06204 3.74534 3.13167 3.38341 3.31608C2.83774 3.59412 2.3941 4.03776 2.11607 4.58343C1.93166 4.94536 1.86202 5.32396 1.83023 5.71312C1.79996 6.08353 1.79998 6.53469 1.79999 7.06452V14.9854C1.79998 15.5152 1.79996 15.9665 1.83023 16.3369C1.86202 16.7261 1.93166 17.1046 2.11607 17.4666C2.3941 18.0122 2.83774 18.4559 3.38341 18.7339C3.74534 18.9183 4.12394 18.988 4.5131 19.0198C4.88352 19.05 5.3347 19.05 5.86457 19.05H7.96174C8.73835 19.05 8.97997 19.0558 9.19756 19.108C9.41183 19.1595 9.61668 19.2443 9.80457 19.3595C9.99537 19.4764 10.1703 19.6431 10.7194 20.1923L11.8136 21.2864C11.9857 21.4585 12.2158 21.55 12.45 21.55C12.6815 21.5501 12.9196 21.4533 13.0864 21.2864L14.1805 20.1923C14.7296 19.6431 14.9046 19.4764 15.0954 19.3595C15.2833 19.2443 15.4881 19.1595 15.7024 19.108C15.92 19.0558 16.1616 19.05 16.9382 19.05H19.0354C19.5652 19.05 20.0164 19.05 20.3868 19.0198C20.776 18.988 21.1546 18.9183 21.5165 18.7339C22.0622 18.4559 22.5058 18.0122 22.7839 17.4666C22.9683 17.1046 23.0379 16.7261 23.0697 16.3369C23.1 15.9665 23.1 15.5153 23.1 14.9855V7.0646C23.1 6.53475 23.1 6.08354 23.0697 5.71312C23.0379 5.32396 22.9683 4.94536 22.7839 4.58343C22.5058 4.03776 22.0622 3.59412 21.5165 3.31608C21.1546 3.13167 20.776 3.06204 20.3868 3.03024C20.0164 2.99998 19.5653 2.99999 19.0355 3H17.2123C16.4043 2.99999 15.7434 2.99999 15.2063 3.04386C14.6504 3.08928 14.1483 3.18617 13.6794 3.42508C13.2044 3.66713 12.7868 4.00252 12.45 4.40804C12.1131 4.00252 11.6956 3.66713 11.2205 3.42508C10.7516 3.18617 10.2496 3.08928 9.69364 3.04386C9.15659 2.99999 8.49578 2.99999 7.68778 3H5.86457ZM4.36007 4.85381C4.49159 4.81107 4.68543 4.79997 5.49999 4.79997H8.24998C9.43679 4.79997 9.81675 4.81107 10.0989 4.90275C10.7382 5.11048 11.2395 5.61171 11.4472 6.25103C11.5389 6.53319 11.55 6.91315 11.55 8.09997V18.4783C11.3526 18.2842 11.1841 18.1288 10.9997 17.9948C10.5018 17.633 9.92531 17.3943 9.31742 17.298C9.01296 17.2498 8.70139 17.2498 8.27413 17.25L5.49999 17.25C4.68543 17.25 4.49159 17.2389 4.36007 17.1961C4.02519 17.0873 3.76264 16.8248 3.65383 16.4899C3.6111 16.3584 3.59999 16.1645 3.59999 15.35V6.69997C3.59999 5.88541 3.6111 5.69157 3.65383 5.56005C3.76264 5.22517 4.02519 4.96262 4.36007 4.85381ZM20.5399 4.85381C20.4083 4.81107 20.2145 4.79997 19.4 4.79997H16.65C15.4632 4.79997 15.0832 4.81107 14.801 4.90275C14.1617 5.11048 13.6605 5.61171 13.4528 6.25103C13.3611 6.53319 13.35 6.91315 13.35 8.09997V18.4783C13.5474 18.2842 13.7158 18.1288 13.9003 17.9948C14.3982 17.633 14.9746 17.3943 15.5825 17.298C15.887 17.2498 16.1986 17.2498 16.6258 17.25L19.4 17.25C20.2145 17.25 20.4083 17.2389 20.5399 17.1961C20.8748 17.0873 21.1373 16.8248 21.2461 16.4899C21.2888 16.3584 21.2999 16.1645 21.2999 15.35V6.69997C21.2999 5.88541 21.2888 5.69157 21.2461 5.56005C21.1373 5.22517 20.8748 4.96262 20.5399 4.85381Z" fill="#171918"/>
</svg>
