<svg width="25" height="24" viewBox="0 0 25 24" fill="none" xmlns="http://www.w3.org/2000/svg">
<path fill-rule="evenodd" clip-rule="evenodd" d="M11.4003 7.9C11.4003 5.74609 13.1464 4 15.3003 4C17.4542 4 19.2003 5.74609 19.2003 7.9C19.2003 10.0539 17.4542 11.8 15.3003 11.8C13.1464 11.8 11.4003 10.0539 11.4003 7.9ZM15.3003 5.8C14.1405 5.8 13.2003 6.7402 13.2003 7.9C13.2003 9.0598 14.1405 10 15.3003 10C16.4601 10 17.4003 9.0598 17.4003 7.9C17.4003 6.7402 16.4601 5.8 15.3003 5.8Z" fill="#171918"/>
<path fill-rule="evenodd" clip-rule="evenodd" d="M9.87868 14.3475C11.3218 13.4591 13.2464 12.9994 15.3002 12.9994C17.3541 12.9994 19.2787 13.4591 20.7218 14.3475C22.1786 15.2443 23.2002 16.6263 23.2002 18.3994L23.2002 18.7263C23.2002 18.9129 23.2003 19.103 23.187 19.2654C23.1722 19.4461 23.1367 19.6703 23.0204 19.8986C22.8622 20.209 22.6098 20.4614 22.2994 20.6196C22.0711 20.7359 21.8469 20.7715 21.6662 20.7863C21.5038 20.7996 21.3138 20.7995 21.1272 20.7995L9.47358 20.8003C9.28693 20.8004 9.09691 20.8004 8.93447 20.7871C8.75374 20.7724 8.52949 20.7368 8.30123 20.6205C7.99075 20.4624 7.73831 20.2099 7.58011 19.8995C7.4638 19.6712 7.42823 19.447 7.41346 19.2662C7.40019 19.1038 7.40022 18.9137 7.40025 18.7271L7.40025 18.3994C7.40025 16.6263 8.42186 15.2443 9.87868 14.3475ZM10.8223 15.8803C9.74563 16.5431 9.20025 17.4111 9.20025 18.3994L9.20206 18.9985L21.3984 18.9977L21.4002 18.3994C21.4002 17.4111 20.8548 16.5431 19.7781 15.8803C18.6877 15.209 17.1123 14.7994 15.3002 14.7994C13.4881 14.7994 11.9127 15.209 10.8223 15.8803Z" fill="#171918"/>
<path d="M3.27475 15.5313C4.29303 14.8704 5.60826 14.5458 6.99029 14.504C6.53583 15.0663 6.16661 15.7061 5.92322 16.4198C5.25906 16.5433 4.69197 16.7573 4.25468 17.0411C3.57227 17.484 3.20025 18.0908 3.20025 18.8987L3.20035 18.9991L5.60148 18.9991C5.60342 19.1297 5.60814 19.2748 5.6194 19.4127C5.64327 19.7048 5.70912 20.1923 5.97627 20.7166C5.99039 20.7443 6.00487 20.7718 6.0197 20.799L3.30093 20.7992L3.24965 20.7994C3.07681 20.8001 2.83924 20.801 2.62242 20.7428C2.0537 20.5901 1.60946 20.1459 1.45672 19.5772C1.3985 19.3604 1.39944 19.1228 1.40012 18.95L1.40026 18.8987C1.40026 17.4058 2.14752 16.2629 3.27475 15.5313Z" fill="#171918"/>
<path fill-rule="evenodd" clip-rule="evenodd" d="M6.80018 6.9999C5.19856 6.9999 3.90019 8.29828 3.90019 9.8999C3.90019 11.5015 5.19856 12.7999 6.80018 12.7999C8.4018 12.7999 9.70017 11.5015 9.70017 9.8999C9.70017 8.29828 8.4018 6.9999 6.80018 6.9999ZM5.70018 9.8999C5.70018 9.29239 6.19267 8.7999 6.80018 8.7999C7.40769 8.7999 7.90017 9.29239 7.90017 9.8999C7.90017 10.5074 7.40769 10.9999 6.80018 10.9999C6.19267 10.9999 5.70018 10.5074 5.70018 9.8999Z" fill="#171918"/>
</svg>
