<svg width="25" height="24" viewBox="0 0 25 24" fill="none" xmlns="http://www.w3.org/2000/svg">
<path d="M17.1466 9.77594C17.4923 9.41878 17.483 8.84901 17.1259 8.50331C16.7687 8.15762 16.199 8.16691 15.8533 8.52406L11.1773 13.355L9.14752 11.2522C8.80231 10.8946 8.23255 10.8845 7.87493 11.2297C7.51731 11.5749 7.50724 12.1447 7.85245 12.5023L10.5289 15.2751C10.6984 15.4506 10.9318 15.5498 11.1758 15.55C11.4198 15.5502 11.6534 15.4513 11.8231 15.2759L17.1466 9.77594Z" fill="#171918"/>
<path fill-rule="evenodd" clip-rule="evenodd" d="M12.5 2C7.03237 2 2.60001 6.43238 2.60001 11.9C2.60001 17.3676 7.03237 21.8 12.5 21.8C17.9676 21.8 22.3999 17.3676 22.3999 11.9C22.3999 6.43238 17.9676 2 12.5 2ZM4.4 11.9C4.4 7.42649 8.02648 3.8 12.5 3.8C16.9735 3.8 20.5999 7.42649 20.5999 11.9C20.5999 16.3735 16.9735 20 12.5 20C8.02648 20 4.4 16.3735 4.4 11.9Z" fill="#171918"/>
</svg>
