<svg width="25" height="24" viewBox="0 0 25 24" fill="none" xmlns="http://www.w3.org/2000/svg">
<path fill-rule="evenodd" clip-rule="evenodd" d="M11.8499 3.8C7.5145 3.8 3.99994 7.31456 3.99994 11.65C3.99994 15.9854 7.5145 19.5 11.8499 19.5C13.2112 19.5 14.489 19.1543 15.6031 18.5465C15.8073 18.4352 16.0466 18.4071 16.2709 18.4683L18.3854 19.045C18.8451 19.1704 19.13 19.2471 19.3391 19.284C19.4134 19.2972 19.4605 19.3016 19.4869 19.303C19.4928 19.2983 19.4982 19.2929 19.5029 19.287C19.5015 19.2606 19.4971 19.2135 19.4839 19.1392C19.447 18.9301 19.3703 18.6452 19.2449 18.1855L18.6682 16.071C18.607 15.8467 18.635 15.6074 18.7464 15.4032C19.3541 14.2891 19.6999 13.0113 19.6999 11.65C19.6999 7.31456 16.1853 3.8 11.8499 3.8ZM2.19995 11.65C2.19995 6.32045 6.52039 2 11.8499 2C17.1794 2 21.4999 6.32045 21.4999 11.65C21.4999 13.1883 21.1393 14.6447 20.4974 15.9372L20.9918 17.7497C21.1036 18.1599 21.2034 18.5257 21.2565 18.8262C21.3103 19.1308 21.3469 19.5169 21.1997 19.9025C21.0068 20.4078 20.6077 20.8069 20.1024 20.9998C19.7167 21.147 19.3307 21.1104 19.0261 21.0566C18.7256 21.0036 18.3597 20.9038 17.9496 20.7919L16.1371 20.2976C14.8446 20.9394 13.3883 21.3 11.8499 21.3C6.52039 21.3 2.19995 16.9795 2.19995 11.65Z" fill="#171719"/>
</svg>
