<svg width="26" height="27" viewBox="0 0 26 27" fill="none" xmlns="http://www.w3.org/2000/svg">
<rect width="26" height="26" transform="translate(0 0.5)" fill="white"/>
<path d="M12.0984 5.30369H6.4119C4.52756 5.30369 3 6.8312 3 8.71548V20.0882C3 21.9725 4.52756 23.5 6.4119 23.5H17.7849C19.6692 23.5 21.1968 21.9725 21.1968 20.0882L21.1968 14.4018M8.68649 17.8136L12.8244 16.9799C13.044 16.9356 13.2457 16.8274 13.4041 16.6689L22.6671 7.40116C23.1112 6.95682 23.1109 6.23657 22.6664 5.7926L20.7042 3.83264C20.2599 3.38886 19.54 3.38916 19.0961 3.83332L9.8321 13.1021C9.674 13.2602 9.56605 13.4615 9.52175 13.6807L8.68649 17.8136Z" stroke="#171918" stroke-width="2" stroke-linecap="round" stroke-linejoin="round"/>
</svg>
