<svg width="21" height="21" viewBox="0 0 21 21" fill="none" xmlns="http://www.w3.org/2000/svg">
<g clip-path="url(#clip0_548_6662)">
<path d="M10.5004 9.81887C13.2695 9.81887 15.5144 7.62084 15.5144 4.90943C15.5144 2.19803 13.2695 0 10.5004 0C7.73127 0 5.48645 2.19803 5.48645 4.90943C5.48645 7.62084 7.73127 9.81887 10.5004 9.81887Z" fill="#BCBCBC" fill-opacity="0.6"/>
<path d="M20.9952 19.8213C20.9936 19.8042 20.9913 19.7871 20.9889 19.77C20.3687 14.6366 15.9098 10.6548 10.4996 10.6548C5.08939 10.6548 0.638456 14.6304 0.012705 19.7575C0.00952857 19.7816 0.00714626 19.805 0.00476396 19.8291C0.00238166 19.8571 0.000793457 19.8851 0.000793457 19.913C0.000793457 20.5024 0.48043 20.9814 1.07839 20.9977C1.08951 20.9977 1.09983 20.9993 1.11095 20.9993C1.12206 20.9993 1.13239 20.9977 1.1435 20.9977H19.8589C19.87 20.9977 19.8803 20.9993 19.8914 20.9993C19.9026 20.9993 19.9129 20.9977 19.924 20.9977C20.5219 20.9806 21.0016 20.5024 21.0016 19.913C21.0016 19.8819 20.9992 19.8516 20.9968 19.8213H20.9952Z" fill="#BCBCBC" fill-opacity="0.6"/>
</g>
<defs>
<clipPath id="clip0_548_6662">
<rect width="21" height="21" fill="white"/>
</clipPath>
</defs>
</svg>
