<svg width="24" height="25" viewBox="0 0 24 25" fill="none" xmlns="http://www.w3.org/2000/svg">
<path fill-rule="evenodd" clip-rule="evenodd" d="M3 10.4067C3 7.43435 5.28857 5 8.22857 5C9.72212 5 11.0549 5.63261 12 6.64668C12.9451 5.63261 14.2779 5 15.7714 5C18.7114 5 21 7.43435 21 10.4067C21 11.8141 20.4912 12.9992 19.6965 14.0992C18.9164 15.1789 17.8312 16.2152 16.6392 17.3235L16.6356 17.3269L13.4302 20.2687C13.2821 20.4047 13.1399 20.5352 13.0107 20.6364C12.8689 20.7474 12.696 20.8614 12.4763 20.9287C12.1658 21.0238 11.8342 21.0238 11.5237 20.9287C11.304 20.8614 11.1311 20.7474 10.9893 20.6364C10.8601 20.5352 10.7179 20.4048 10.5698 20.2688L7.36444 17.3269L7.36079 17.3235C6.16878 16.2152 5.08361 15.1789 4.30354 14.0992C3.50877 12.9992 3 11.8141 3 10.4067ZM8.22856 6.54461C6.19713 6.54461 4.54285 8.22968 4.54285 10.4066C4.54285 11.4022 4.89122 12.2768 5.55359 13.1936C6.23033 14.1302 7.20167 15.0673 8.40883 16.1897L11.9421 19.4325C11.9748 19.4626 12.0251 19.4626 12.0579 19.4325L15.5912 16.1896C16.7983 15.0673 17.7697 14.1302 18.4464 13.1936C19.1088 12.2768 19.4571 11.4022 19.4571 10.4066C19.4571 8.22968 17.8028 6.54461 15.7714 6.54461C14.4575 6.54461 13.3133 7.24257 12.6593 8.32028C12.5193 8.55083 12.2694 8.69158 12 8.69158C11.7306 8.69158 11.4806 8.55083 11.3407 8.32028C10.6867 7.24257 9.5425 6.54461 8.22856 6.54461Z" fill="#565656"/>
</svg>
