<svg width="24" height="24" viewBox="0 0 24 24" fill="none" xmlns="http://www.w3.org/2000/svg">
<path fill-rule="evenodd" clip-rule="evenodd" d="M11.7593 2.88044C12.3843 1.89608 13.7604 1.68977 14.6339 2.50312C18.7303 6.31739 21.2999 9.97715 21.2999 14.0692C21.2999 18.9845 17.4785 22.8692 12.15 22.8692C9.51741 22.8692 7.22358 21.9707 5.5825 20.393C3.93932 18.8133 3 16.5992 3 14.0692C3 11.3436 4.11141 8.73179 6.00992 6.73113C6.63813 6.06911 7.63834 6.09786 8.2612 6.65844L8.96079 7.28807L11.7593 2.88044ZM8.64998 16.0688C8.64998 17.9688 10.2 19.4688 12.15 19.4688C14.1 19.4688 15.65 17.9688 15.65 16.0688C15.65 14.1688 14.1 12.6688 12.15 10.9688C10.2 12.6688 8.64998 14.1688 8.64998 16.0688Z" fill="#16D4B1"/>
</svg>
