<svg width="24" height="24" viewBox="0 0 24 24" fill="none" xmlns="http://www.w3.org/2000/svg">
<path d="M10.85 8.6623C10.85 7.85425 10.85 7.1934 10.8061 6.65632C10.7607 6.10041 10.6638 5.59833 10.4249 5.12944C10.051 4.39561 9.45437 3.79898 8.72054 3.42508C8.25057 3.18561 7.74509 3.08908 7.18545 3.04381C6.64376 2.99999 5.97578 2.99999 5.15764 3H5.0847C4.54811 2.99999 4.09221 2.99998 3.71883 3.03018C3.32761 3.06183 2.94644 3.13112 2.58343 3.31608C2.03776 3.59412 1.59412 4.03776 1.31608 4.58343C1.13167 4.94536 1.06204 5.32396 1.03024 5.71312C0.999979 6.08352 0.999989 6.53466 1 7.06447V14.9854C0.999988 15.5152 0.999978 15.9665 1.03024 16.3369C1.06204 16.7261 1.13167 17.1046 1.31608 17.4666C1.59412 18.0122 2.03776 18.4559 2.58343 18.7339C2.94536 18.9183 3.32395 18.988 3.71311 19.0198C4.08354 19.05 4.53472 19.05 5.06459 19.05H6.16176C6.93837 19.05 7.17999 19.0558 7.39758 19.108C7.61185 19.1595 7.8167 19.2443 8.00459 19.3595C8.19539 19.4764 8.37033 19.6431 8.91947 20.1923C9.46187 20.7347 9.73307 21.0059 9.96028 21.0489C10.2534 21.1045 10.5516 20.9809 10.7197 20.7344C10.8499 20.5433 10.8499 20.1598 10.8499 19.3927L10.85 8.6623Z" fill="#16D4B1"/>
<path d="M12.4499 19.3926C12.4499 20.1599 12.4499 20.5436 12.5802 20.7348C12.7482 20.9812 13.0463 21.1047 13.3393 21.0492C13.5666 21.0062 13.8379 20.7349 14.3805 20.1923C14.9296 19.6432 15.1046 19.4764 15.2954 19.3595C15.4833 19.2443 15.6881 19.1595 15.9024 19.108C16.12 19.0558 16.3616 19.05 17.1382 19.05H18.2354C18.7653 19.05 19.2164 19.05 19.5869 19.0198C19.976 18.988 20.3546 18.9183 20.7166 18.7339C21.2622 18.4559 21.7059 18.0122 21.9839 17.4666C22.1683 17.1046 22.238 16.7261 22.2697 16.3369C22.3 15.9665 22.3 15.5153 22.3 14.9854L22.2998 7.0646C22.2999 6.53474 22.2999 6.08354 22.2696 5.71312C22.2378 5.32396 22.1682 4.94536 21.9838 4.58343C21.7057 4.03776 21.2621 3.59412 20.7164 3.31608C20.3534 3.13112 19.9722 3.06183 19.581 3.03018C19.2076 2.99998 18.7518 2.99999 18.2152 3H18.1423C17.3242 2.99999 16.6561 2.99999 16.1144 3.04381C15.5548 3.08908 15.0493 3.18561 14.5793 3.42508C13.8455 3.79898 13.2488 4.39561 12.8749 5.12944C12.636 5.59833 12.5391 6.10041 12.4937 6.65632C12.4498 7.1934 12.4499 7.85425 12.4499 8.6623L12.4499 19.3926Z" fill="#16D4B1"/>
</svg>
