<svg width="24" height="24" viewBox="0 0 24 24" fill="none" xmlns="http://www.w3.org/2000/svg">
<path fill-rule="evenodd" clip-rule="evenodd" d="M12 1.84985C6.25621 1.84985 1.59998 6.50609 1.59998 12.2499C1.59998 12.4075 1.60349 12.5643 1.61044 12.7203C1.62539 13.0556 1.82566 13.3547 2.12996 13.4963C2.43426 13.6378 2.79205 13.5983 3.05812 13.3937C3.66524 12.9269 4.42396 12.6499 5.24995 12.6499C6.15809 12.6499 6.98574 12.9849 7.61943 13.5395C7.92157 13.8039 8.36232 13.8362 8.69978 13.6186C9.41173 13.1597 10.2251 12.8449 11.0999 12.7157V19.0002C11.0999 19.7458 10.4955 20.3502 9.74994 20.3502C9.00435 20.3502 8.39994 19.7458 8.39994 19.0002C8.39994 18.5032 7.997 18.1002 7.49994 18.1002C7.00288 18.1002 6.59994 18.5032 6.59994 19.0002C6.59994 20.7399 8.01024 22.1502 9.74994 22.1502C11.4896 22.1502 12.8999 20.7399 12.8999 19.0002V12.7157C13.7748 12.8449 14.5882 13.1597 15.3001 13.6187C15.6376 13.8362 16.0783 13.8039 16.3805 13.5395C17.0142 12.9849 17.8418 12.6499 18.75 12.6499C19.576 12.6499 20.3347 12.927 20.9418 13.3938C21.2079 13.5983 21.5657 13.6379 21.87 13.4963C22.1743 13.3548 22.3746 13.0556 22.3895 12.7204C22.3965 12.5643 22.4 12.4075 22.4 12.2499C22.4 6.50609 17.7437 1.84985 12 1.84985ZM5.24995 10.8499C4.62659 10.8499 4.02731 10.9558 3.46958 11.1505C4.00938 6.92001 7.62279 3.64985 12 3.64985C16.3772 3.64985 19.9906 6.92002 20.5304 11.1505C19.9726 10.9558 19.3733 10.8499 18.75 10.8499C17.6278 10.8499 16.5843 11.1929 15.7204 11.7792C14.6112 11.1861 13.3438 10.8499 12 10.8499C10.6561 10.8499 9.38873 11.1861 8.27948 11.7792C7.41565 11.1929 6.37211 10.8499 5.24995 10.8499Z" fill="#16D4B1"/>
</svg>
