<svg width="80" height="80" viewBox="0 0 80 80" fill="none" xmlns="http://www.w3.org/2000/svg">
<path d="M31.7316 37.0839L31.1023 39.5034C32.3175 39.8195 33.5787 39.1851 34.0493 38.0209L31.7316 37.0839ZM21.2875 37.1696C21.8244 38.4417 23.2908 39.0377 24.5629 38.5008C25.8349 37.9639 26.4309 36.4975 25.894 35.2255L21.2875 37.1696ZM27.9375 25.2411L26.9457 22.9462L27.9375 25.2411ZM25.0942 24.9336C25.6311 26.2057 27.0975 26.8016 28.3695 26.2648C29.6416 25.7279 30.2376 24.2615 29.7007 22.9894L25.0942 24.9336ZM28.0806 19.1507C27.5437 17.8786 26.0772 17.2826 24.8052 17.8195C23.5331 18.3564 22.9372 19.8228 23.474 21.0949L28.0806 19.1507ZM32.9658 22.9518C32.4567 24.2352 33.0843 25.6883 34.3677 26.1975C35.6511 26.7067 37.1043 26.079 37.6134 24.7956L32.9658 22.9518ZM39.1502 20.9219C39.6594 19.6385 39.0317 18.1854 37.7483 17.6762C36.4649 17.167 35.0118 17.7947 34.5026 19.0781L39.1502 20.9219ZM18.9904 25.7988C17.7112 25.2792 16.253 25.8949 15.7333 27.1741C15.2137 28.4532 15.8294 29.9115 17.1086 30.4312L18.9904 25.7988ZM20.9366 31.9863C22.2158 32.5059 23.674 31.8902 24.1937 30.611C24.7134 29.3319 24.0976 27.8736 22.8185 27.3539L20.9366 31.9863ZM35.4026 28.9481C36.331 29.9701 37.9121 30.0459 38.9341 29.1175C39.956 28.1891 40.0318 26.608 39.1034 25.586L35.4026 28.9481ZM62 43.0983H59.5C59.5 50.5274 53.5567 56.5 46.2857 56.5V59V61.5C56.3741 61.5 64.5 53.2325 64.5 43.0983H62ZM46.2857 27.1966V29.6966C53.5567 29.6966 59.5 35.6692 59.5 43.0983H62H64.5C64.5 32.9641 56.3741 24.6966 46.2857 24.6966V27.1966ZM31.7316 37.0839L34.0493 38.0209C36.0308 33.1198 40.7788 29.6966 46.2857 29.6966V27.1966V24.6966C38.6442 24.6966 32.1221 29.4479 29.4138 36.1469L31.7316 37.0839ZM29 36.7376V39.2376C29.7335 39.2376 30.4366 39.3303 31.1023 39.5034L31.7316 37.0839L32.3609 34.6644C31.2833 34.3841 30.1571 34.2376 29 34.2376V36.7376ZM18 47.8688H20.5C20.5 43.0733 24.3318 39.2376 29 39.2376V36.7376V34.2376C21.5142 34.2376 15.5 40.3684 15.5 47.8688H18ZM29 59V56.5C24.3318 56.5 20.5 52.6643 20.5 47.8688H18H15.5C15.5 55.3692 21.5142 61.5 29 61.5V59ZM46.2857 59V56.5H29V59V61.5H46.2857V59ZM23.5908 36.1975L25.894 35.2255C24.6307 32.232 26.0163 28.7949 28.9293 27.5359L27.9375 25.2411L26.9457 22.9462C21.4783 25.3091 18.9717 31.6827 21.2875 37.1696L23.5908 36.1975ZM27.3974 23.9615L29.7007 22.9894L28.0806 19.1507L25.7773 20.1228L23.474 21.0949L25.0942 24.9336L27.3974 23.9615ZM35.2896 23.8737L37.6134 24.7956L39.1502 20.9219L36.8264 20L34.5026 19.0781L32.9658 22.9518L35.2896 23.8737ZM18.0495 28.115L17.1086 30.4312L20.9366 31.9863L21.8775 29.6701L22.8185 27.3539L18.9904 25.7988L18.0495 28.115ZM27.9375 25.2411L28.9293 27.5359C31.2148 26.5482 33.794 27.1775 35.4026 28.9481L37.253 27.2671L39.1034 25.586C36.1119 22.2931 31.2671 21.0786 26.9457 22.9462L27.9375 25.2411Z" fill="#E0E0E0"/>
</svg>
