<svg width="24" height="24" viewBox="0 0 24 24" fill="none" xmlns="http://www.w3.org/2000/svg">
<path d="M8.50004 15.2004C8.50004 17.1004 10.05 18.6004 12 18.6004C13.95 18.6004 15.5 17.1004 15.5 15.2004C15.5 13.3004 13.95 11.8004 12 10.1004C10.05 11.8004 8.50004 13.3004 8.50004 15.2004Z" fill="#16D4B1"/>
<path fill-rule="evenodd" clip-rule="evenodd" d="M14.2648 1.93198C13.5057 1.23331 12.3113 1.40656 11.767 2.2637L8.81083 6.91975L8.11124 6.29012C7.48837 5.72954 6.48817 5.70079 5.85996 6.36281C3.96144 8.36347 2.85004 10.9753 2.85004 13.7008C2.85004 16.2308 3.78936 18.4449 5.43254 20.0247C7.07362 21.6024 9.36745 22.5008 12 22.5008C17.3285 22.5008 21.15 18.6162 21.15 13.7008C21.15 9.53808 18.4907 5.8214 14.2648 1.93198ZM9.75981 8.78326L13.1864 3.38629C17.2589 7.16338 19.35 10.3846 19.35 13.7008C19.35 17.5855 16.3714 20.7008 12 20.7008C9.78259 20.7008 7.95142 19.9493 6.68002 18.727C5.4107 17.5068 4.65003 15.7709 4.65003 13.7008C4.65003 11.531 5.51143 9.41288 7.03455 7.74275L8.39795 8.96981C8.59483 9.147 8.85975 9.22847 9.12217 9.19252C9.38458 9.15657 9.61784 9.00686 9.75981 8.78326Z" fill="#16D4B1"/>
</svg>
