<svg width="24" height="24" viewBox="0 0 24 24" fill="none" xmlns="http://www.w3.org/2000/svg">
<path fill-rule="evenodd" clip-rule="evenodd" d="M6.50004 2.59998C6.00299 2.59998 5.60004 3.00291 5.60004 3.49997L5.60001 6.09998H2.00016C1.5031 6.09998 1.10016 6.50292 1.10016 6.99998C1.10016 12.6097 5.54167 17.1821 11.1 17.3924V19.6H6.49998C6.00292 19.6 5.59998 20.0029 5.59998 20.5C5.59998 20.997 6.00292 21.4 6.49998 21.4H17.4999C17.997 21.4 18.3999 20.997 18.3999 20.5C18.3999 20.0029 17.997 19.6 17.4999 19.6H12.9V17.3924C18.4583 17.1822 22.8998 12.6098 22.8998 6.99998C22.8998 6.50292 22.4969 6.09998 21.9998 6.09998H18.4L18.4 3.49999C18.4 3.26129 18.3052 3.03237 18.1364 2.86358C17.9676 2.6948 17.7387 2.59998 17.5 2.59998H6.50004ZM18.3999 7.89998L18.3999 8.79979C18.3999 10.2024 18.3673 11.0838 18.2834 11.7786L18.2818 11.7921C18.1797 12.5433 17.9995 13.2196 17.7239 13.832C19.5522 12.4319 20.8022 10.3144 21.0533 7.89998H18.3999ZM6.27604 13.832C6.00597 13.226 5.83019 12.5525 5.72881 11.7893L5.72813 11.7841C5.63263 11.0321 5.59998 10.138 5.59998 8.79978L5.59999 7.89998H2.94668C3.19775 10.3143 4.4477 12.4318 6.27604 13.832ZM7.39997 8.79978L7.40002 4.39998H16.6L16.5999 8.79977C16.5999 10.1858 16.5668 10.9757 16.4972 11.5562C16.3308 12.7725 15.9381 13.598 15.2703 14.2666C14.4181 15.1087 13.2173 15.5997 12 15.5997C10.7941 15.5997 9.57116 15.098 8.72958 14.2666C8.06157 13.5978 7.6799 12.805 7.51347 11.5548C7.43322 10.9213 7.39997 10.1217 7.39997 8.79978Z" fill="#16D4B1"/>
</svg>
