<svg width="24" height="24" viewBox="0 0 24 24" fill="none" xmlns="http://www.w3.org/2000/svg">
<path d="M4.46967 17.9697C4.17678 18.2626 4.17678 18.7374 4.46967 19.0303C4.76256 19.3232 5.23744 19.3232 5.53033 19.0303L4.46967 17.9697ZM9 14.5L9.53033 13.9697C9.23744 13.6768 8.76256 13.6768 8.46967 13.9697L9 14.5ZM11 16.5L10.4697 17.0303C10.7626 17.3232 11.2374 17.3232 11.5303 17.0303L11 16.5ZM15.5 12L16.0303 11.4697C15.7374 11.1768 15.2626 11.1768 14.9697 11.4697L15.5 12ZM18.9697 16.5303C19.2626 16.8232 19.7374 16.8232 20.0303 16.5303C20.3232 16.2374 20.3232 15.7626 20.0303 15.4697L18.9697 16.5303ZM5 18.5L5.53033 19.0303L9.53033 15.0303L9 14.5L8.46967 13.9697L4.46967 17.9697L5 18.5ZM9 14.5L8.46967 15.0303L10.4697 17.0303L11 16.5L11.5303 15.9697L9.53033 13.9697L9 14.5ZM11 16.5L11.5303 17.0303L16.0303 12.5303L15.5 12L14.9697 11.4697L10.4697 15.9697L11 16.5ZM15.5 12L14.9697 12.5303L18.9697 16.5303L19.5 16L20.0303 15.4697L16.0303 11.4697L15.5 12ZM7 4V4.75H17V4V3.25H7V4ZM20 7H19.25V17H20H20.75V7H20ZM17 20V19.25H7V20V20.75H17V20ZM4 17H4.75V7H4H3.25V17H4ZM7 20V19.25C5.75736 19.25 4.75 18.2426 4.75 17H4H3.25C3.25 19.0711 4.92893 20.75 7 20.75V20ZM20 17H19.25C19.25 18.2426 18.2426 19.25 17 19.25V20V20.75C19.0711 20.75 20.75 19.0711 20.75 17H20ZM17 4V4.75C18.2426 4.75 19.25 5.75736 19.25 7H20H20.75C20.75 4.92893 19.0711 3.25 17 3.25V4ZM7 4V3.25C4.92893 3.25 3.25 4.92893 3.25 7H4H4.75C4.75 5.75736 5.75736 4.75 7 4.75V4ZM10 8.5H9.25C9.25 8.91421 8.91421 9.25 8.5 9.25V10V10.75C9.74264 10.75 10.75 9.74264 10.75 8.5H10ZM8.5 10V9.25C8.08579 9.25 7.75 8.91421 7.75 8.5H7H6.25C6.25 9.74264 7.25736 10.75 8.5 10.75V10ZM7 8.5H7.75C7.75 8.08579 8.08579 7.75 8.5 7.75V7V6.25C7.25736 6.25 6.25 7.25736 6.25 8.5H7ZM8.5 7V7.75C8.91421 7.75 9.25 8.08579 9.25 8.5H10H10.75C10.75 7.25736 9.74264 6.25 8.5 6.25V7Z" fill="#B4B4B4"/>
</svg>
