<svg width="26" height="27" viewBox="0 0 26 27" fill="none" xmlns="http://www.w3.org/2000/svg">
<g clip-path="url(#clip0_313_14817)">
<rect width="26" height="26" transform="translate(0 0.5)" fill="white"/>
<path d="M6.74999 15.5C7.71649 15.5 8.49999 14.7165 8.49999 13.75C8.49999 12.7835 7.71649 12 6.74999 12C5.7835 12 5 12.7835 5 13.75C5 14.7165 5.7835 15.5 6.74999 15.5Z" fill="#171918"/>
<path d="M15.25 13.75C15.25 14.7165 14.4665 15.5 13.5 15.5C12.5335 15.5 11.75 14.7165 11.75 13.75C11.75 12.7835 12.5335 12 13.5 12C14.4665 12 15.25 12.7835 15.25 13.75Z" fill="#171918"/>
<path d="M21.9999 13.75C21.9999 14.7165 21.2164 15.5 20.25 15.5C19.2835 15.5 18.5 14.7165 18.5 13.75C18.5 12.7835 19.2835 12 20.25 12C21.2164 12 21.9999 12.7835 21.9999 13.75Z" fill="#171918"/>
</g>
<defs>
<clipPath id="clip0_313_14817">
<rect width="26" height="26" fill="white" transform="translate(0 0.5)"/>
</clipPath>
</defs>
</svg>
