<svg width="24" height="24" viewBox="0 0 24 24" fill="none" xmlns="http://www.w3.org/2000/svg">
<path fill-rule="evenodd" clip-rule="evenodd" d="M12.7344 3.22976C12.5657 2.99155 12.2919 2.84998 12 2.84998C11.7081 2.84998 11.4343 2.99155 11.2656 3.22976L8.86224 6.62275C8.53043 7.0912 8.31226 7.39799 8.12665 7.61936C7.94782 7.83264 7.84917 7.90396 7.78375 7.93834C7.57832 8.04627 7.34403 8.08647 7.11438 8.05318C7.04123 8.04259 6.92446 8.00822 6.68476 7.86675C6.43598 7.71991 6.12802 7.50339 5.65903 7.17233L4.01906 6.0147C3.73009 5.81072 3.34843 5.79492 3.04359 5.97432C2.73875 6.15372 2.56725 6.49504 2.60527 6.84671L3.60526 16.0967C3.65467 16.5537 4.04043 16.9 4.50005 16.9H19.5C19.9596 16.9 20.3454 16.5537 20.3948 16.0967L21.3948 6.84671C21.4328 6.49504 21.2613 6.15372 20.9564 5.97432C20.6516 5.79492 20.2699 5.81072 19.981 6.0147L18.341 7.17233C17.872 7.50339 17.5641 7.71991 17.3153 7.86675C17.0756 8.00822 16.9588 8.04259 16.8857 8.05318C16.656 8.08647 16.4217 8.04627 16.2163 7.93834C16.1509 7.90396 16.0522 7.83264 15.8734 7.61936C15.6878 7.39799 15.4696 7.0912 15.1378 6.62275L12.7344 3.22976ZM12 5.30701L13.9737 8.09352C14.329 8.59629 14.6233 9.01271 14.9945 9.28946C15.7379 9.84374 16.7015 10.0091 17.5872 9.7343C18.0294 9.59711 18.4457 9.30261 18.9483 8.94702L19.391 8.63439L18.692 15.1H5.30798L4.609 8.63439L5.05174 8.94703C5.55434 9.30261 5.9706 9.59711 6.41282 9.7343C7.29847 10.0091 8.26212 9.84374 9.00553 9.28946C9.37673 9.01271 9.67102 8.5963 10.0263 8.09352L12 5.30701Z" fill="#16D4B1"/>
<path d="M5.00011 19.35C4.50305 19.35 4.10011 19.7529 4.10011 20.25C4.10011 20.747 4.50305 21.15 5.00011 21.15H19.0001C19.4971 21.15 19.9 20.747 19.9 20.25C19.9 19.7529 19.4971 19.35 19.0001 19.35H5.00011Z" fill="#16D4B1"/>
</svg>
