<svg width="24" height="24" viewBox="0 0 24 24" fill="none" xmlns="http://www.w3.org/2000/svg">
<path d="M11 7.9C11 5.74609 12.7461 4 14.9 4C17.0539 4 18.8 5.74609 18.8 7.9C18.8 10.0539 17.0539 11.8 14.9 11.8C12.7461 11.8 11 10.0539 11 7.9Z" fill="#16D4B1"/>
<path d="M14.8999 13.4994C12.8461 13.4994 10.9215 13.9591 9.47841 14.8475C8.02159 15.7443 6.99998 17.1263 6.99998 18.8994L6.99984 18.9508C6.99915 19.1239 6.99821 19.3618 7.05661 19.5789C7.20945 20.1471 7.65329 20.5909 8.22149 20.7437C8.43862 20.8021 8.67655 20.8012 8.84965 20.8005L8.90101 20.8003L20.9 20.7995L20.9511 20.7996C21.1237 20.8003 21.3608 20.8012 21.5772 20.7432C22.1465 20.5906 22.5911 20.1459 22.7437 19.5767C22.8017 19.3603 22.8007 19.1231 22.8001 18.9506L22.7999 18.8994C22.7999 17.1263 21.7783 15.7443 20.3215 14.8475C18.8784 13.9591 16.9538 13.4994 14.8999 13.4994Z" fill="#16D4B1"/>
<path d="M2.87449 16.0313C3.89278 15.3704 5.20802 15.0458 6.59005 15.004C5.74906 16.0445 5.19999 17.3505 5.19999 18.8993L5.19965 18.9222C5.19734 19.046 5.18774 19.5606 5.3184 20.0464C5.38972 20.3115 5.49133 20.5637 5.61938 20.799L2.40068 20.7993C1.62712 20.7993 1 20.1723 1 19.3987C1 17.9058 1.74726 16.7629 2.87449 16.0313Z" fill="#16D4B1"/>
<path d="M6.39992 6.9999C4.7983 6.9999 3.49993 8.29828 3.49993 9.8999C3.49993 11.5015 4.7983 12.7999 6.39992 12.7999C8.00154 12.7999 9.29991 11.5015 9.29991 9.8999C9.29991 8.29828 8.00154 6.9999 6.39992 6.9999Z" fill="#16D4B1"/>
</svg>
