<svg width="24" height="24" viewBox="0 0 24 24" fill="none" xmlns="http://www.w3.org/2000/svg">
<path fill-rule="evenodd" clip-rule="evenodd" d="M2 9.3C2 5.83654 4.66999 3 8.09998 3C9.84245 3 11.3973 3.73713 12.5 4.91873C13.6026 3.73713 15.1575 3 16.8999 3C20.3299 3 22.9999 5.83654 22.9999 9.3C22.9999 10.9399 22.4064 12.3207 21.4791 13.6025C20.569 14.8606 19.303 16.0682 17.9123 17.3595L17.9081 17.3635L14.1686 20.7914C13.9957 20.9498 13.8299 21.1019 13.6791 21.2197C13.5136 21.3491 13.3119 21.482 13.0556 21.5604C12.6934 21.6711 12.3065 21.6711 11.9443 21.5604C11.688 21.482 11.4863 21.3491 11.3208 21.2197C11.17 21.1019 11.0042 20.9498 10.8314 20.7914L7.09183 17.3634L7.08757 17.3595C5.6969 16.0682 4.43087 14.8606 3.52079 13.6025C2.59356 12.3207 2 10.9399 2 9.3ZM8.09996 4.7998C5.72997 4.7998 3.79998 6.76327 3.79998 9.2998C3.79998 10.4599 4.20642 11.4791 4.97918 12.5473C5.7687 13.6387 6.90194 14.7306 8.31027 16.0383L12.4324 19.817C12.4706 19.852 12.5293 19.852 12.5675 19.817L16.6897 16.0383C18.098 14.7305 19.2312 13.6387 20.0207 12.5473C20.7935 11.4791 21.1999 10.4599 21.1999 9.2998C21.1999 6.76327 19.2699 4.7998 16.8999 4.7998C15.367 4.7998 14.0321 5.61307 13.2691 6.86884C13.1059 7.13748 12.8143 7.30148 12.4999 7.30148C12.1856 7.30148 11.894 7.13748 11.7308 6.86884C10.9678 5.61307 9.63289 4.7998 8.09996 4.7998Z" fill="#FF4747"/>
</svg>
