<svg width="24" height="24" viewBox="0 0 24 24" fill="none" xmlns="http://www.w3.org/2000/svg">
<path fill-rule="evenodd" clip-rule="evenodd" d="M5.49988 3.89999C5.49989 3.40294 5.90283 3 6.39988 3H17.3998C17.6385 3 17.8675 3.09482 18.0362 3.26361C18.205 3.43239 18.2998 3.66131 18.2998 3.90001L18.2998 6.5H21.8996C22.3967 6.5 22.7996 6.90295 22.7996 7.4C22.7996 13.0098 18.3581 17.5822 12.7998 17.7924V20H17.3998C17.8968 20 18.2998 20.4029 18.2998 20.9C18.2998 21.3971 17.8968 21.8 17.3998 21.8H6.39982C5.90276 21.8 5.49982 21.3971 5.49982 20.9C5.49982 20.4029 5.90276 20 6.39982 20H10.9998V17.7924C5.44151 17.5822 1 13.0098 1 7.4C1 6.90295 1.40294 6.5 1.9 6.5H5.49985L5.49988 3.89999ZM18.2998 9.19981L18.2998 8.3H20.9531C20.702 10.7144 19.4521 12.8319 17.6237 14.232C17.8993 13.6196 18.0794 12.9433 18.1816 12.1921L18.1833 12.1786C18.2672 11.4838 18.2998 10.6024 18.2998 9.19981ZM5.62865 12.1893C5.73003 12.9526 5.90582 13.626 6.17588 14.232C4.34754 12.8319 3.0976 10.7144 2.84652 8.3H5.49983L5.49982 9.19979C5.49982 10.538 5.53249 11.4321 5.62799 12.1842L5.62865 12.1893Z" fill="#16D4B1"/>
</svg>
