<svg width="24" height="24" viewBox="0 0 24 24" fill="none" xmlns="http://www.w3.org/2000/svg">
<path d="M16.6467 9.87591C16.9924 9.51876 16.9831 8.94899 16.6259 8.60329C16.2688 8.25759 15.699 8.26688 15.3533 8.62404L10.6774 13.455L8.64755 11.3522C8.30234 10.9946 7.73258 10.9845 7.37496 11.3297C7.01734 11.6749 7.00727 12.2447 7.35248 12.6023L10.0289 15.375C10.1984 15.5506 10.4319 15.6498 10.6759 15.65C10.9199 15.6501 11.1535 15.5512 11.3232 15.3759L16.6467 9.87591Z" fill="#16D4B1"/>
<path fill-rule="evenodd" clip-rule="evenodd" d="M12 2.09998C6.5324 2.09998 2.10004 6.53236 2.10004 12C2.10004 17.4676 6.5324 21.9 12 21.9C17.4676 21.9 21.9 17.4676 21.9 12C21.9 6.53236 17.4676 2.09998 12 2.09998ZM3.90003 12C3.90003 7.52647 7.52651 3.89998 12 3.89998C16.4735 3.89998 20.1 7.52647 20.1 12C20.1 16.4735 16.4735 20.1 12 20.1C7.52651 20.1 3.90003 16.4735 3.90003 12Z" fill="#16D4B1"/>
</svg>
