<svg width="24" height="24" viewBox="0 0 24 24" fill="none" xmlns="http://www.w3.org/2000/svg">
<path d="M8.09998 3C4.66999 3 2 5.83654 2 9.3C2 10.9399 2.59356 12.3207 3.52079 13.6025C4.43087 14.8606 5.6969 16.0682 7.08758 17.3595L7.09183 17.3634L10.8314 20.7914C11.0042 20.9498 11.1701 21.1019 11.3208 21.2197C11.4863 21.3491 11.688 21.482 11.9443 21.5604C12.3065 21.6711 12.6935 21.6711 13.0556 21.5604C13.3119 21.482 13.5136 21.3491 13.6791 21.2197C13.8299 21.1019 13.9957 20.9499 14.1685 20.7914L17.9081 17.3634L17.9124 17.3595C19.303 16.0682 20.5691 14.8606 21.4791 13.6025C22.4064 12.3207 22.9999 10.9399 22.9999 9.3C22.9999 5.83654 20.3299 3 16.9 3C15.1575 3 13.6026 3.73713 12.5 4.91873C11.3973 3.73713 9.84245 3 8.09998 3Z" fill="#FF4747"/>
</svg>
