<svg width="24" height="24" viewBox="0 0 24 24" fill="none" xmlns="http://www.w3.org/2000/svg">
<path d="M11.6498 1.99988C6.32025 1.99988 1.99982 6.32033 1.99982 11.6499C1.99982 16.9794 6.32025 21.2999 11.6498 21.2999C13.1881 21.2999 14.6445 20.9393 15.9369 20.2974L17.7493 20.7917C18.1595 20.9036 18.5254 21.0034 18.826 21.0565C19.1305 21.1103 19.5166 21.1469 19.9023 20.9997C20.4075 20.8068 20.8066 20.4077 20.9995 19.9024C21.1468 19.5167 21.1101 19.1307 21.0564 18.8261C21.0033 18.5255 20.9035 18.1597 20.7916 17.7495L20.2973 15.937C20.9391 14.6446 21.2997 13.1882 21.2997 11.6499C21.2997 6.32033 16.9793 1.99988 11.6498 1.99988Z" fill="#16D4B1"/>
</svg>
