<svg width="24" height="24" viewBox="0 0 24 24" fill="none" xmlns="http://www.w3.org/2000/svg">
<path fill-rule="evenodd" clip-rule="evenodd" d="M2.98877 9.80663C2.98877 6.83425 5.28018 4.3999 8.22384 4.3999C9.71924 4.3999 11.0537 5.03252 12 6.04658C12.9462 5.03252 14.2807 4.3999 15.7761 4.3999C18.7197 4.3999 21.0111 6.83425 21.0111 9.80663C21.0111 11.214 20.5017 12.3991 19.706 13.4991C18.9249 14.5788 17.8384 15.6151 16.6449 16.7234L16.6413 16.7268L13.432 19.6686C13.2836 19.8046 13.1413 19.9351 13.0119 20.0363C12.8699 20.1473 12.6968 20.2613 12.4768 20.3286C12.166 20.4237 11.8339 20.4237 11.5231 20.3286C11.3031 20.2613 11.13 20.1473 10.988 20.0363C10.8586 19.9351 10.7163 19.8047 10.568 19.6687L7.35863 16.7268L7.35498 16.7234C6.16149 15.6151 5.07497 14.5788 4.29393 13.4991C3.49817 12.3991 2.98877 11.214 2.98877 9.80663ZM8.22383 5.94451C6.18987 5.94451 4.53353 7.62958 4.53353 9.80646C4.53353 10.8021 4.88234 11.6767 5.54553 12.5935C6.22311 13.5302 7.19566 14.4672 8.40431 15.5896L11.9419 18.8324C11.9748 18.8625 12.0251 18.8625 12.0579 18.8324L15.5956 15.5895C16.8042 14.4672 17.7768 13.5301 18.4543 12.5935C19.1175 11.6767 19.4663 10.8021 19.4663 9.80646C19.4663 7.62958 17.81 5.94451 15.7761 5.94451C14.4605 5.94451 13.3149 6.64247 12.66 7.72018C12.5199 7.95073 12.2697 8.09148 11.9999 8.09148C11.7302 8.09148 11.4799 7.95073 11.3399 7.72018C10.685 6.64247 9.5394 5.94451 8.22383 5.94451Z" fill="#FF4747"/>
</svg>
