<svg width="24" height="24" viewBox="0 0 24 24" fill="none" xmlns="http://www.w3.org/2000/svg">
<path fill-rule="evenodd" clip-rule="evenodd" d="M1.99994 11.9C1.99994 6.43238 6.4323 2 11.8999 2C17.3675 2 21.7999 6.43238 21.7999 11.9C21.7999 17.3676 17.3675 21.8 11.8999 21.8C6.4323 21.8 1.99994 17.3676 1.99994 11.9ZM16.5466 9.77584C16.8923 9.41868 16.883 8.84891 16.5258 8.50322C16.1687 8.15752 15.5989 8.16681 15.2532 8.52397L10.5773 13.3549L8.54747 11.2521C8.20227 10.8945 7.63251 10.8844 7.27489 11.2296C6.91726 11.5748 6.9072 12.1446 7.25241 12.5022L9.92887 15.275C10.0983 15.4505 10.3318 15.5497 10.5758 15.5499C10.8198 15.5501 11.0534 15.4512 11.2231 15.2758L16.5466 9.77584Z" fill="#16D4B1"/>
</svg>
