<svg width="24" height="24" viewBox="0 0 24 24" fill="none" xmlns="http://www.w3.org/2000/svg">
<path d="M2 12.4C2 6.65624 6.65624 2 12.4 2C18.1438 2 22.8 6.65624 22.8 12.4C22.8 12.5576 22.7965 12.7145 22.7895 12.8705C22.7746 13.2058 22.5743 13.5049 22.27 13.6465C21.9657 13.788 21.6079 13.7485 21.3418 13.5439C20.7347 13.0771 19.976 12.8 19.15 12.8C18.2418 12.8 17.4142 13.1351 16.7805 13.6896C16.4784 13.9541 16.0376 13.9864 15.7001 13.7688C14.9882 13.3098 14.1748 12.995 13.3 12.8658V19.1504C13.3 20.8901 11.8897 22.3004 10.15 22.3004C8.41027 22.3004 6.99996 20.8901 6.99996 19.1504C6.99996 18.6533 7.40291 18.2504 7.89996 18.2504C8.39702 18.2504 8.79996 18.6533 8.79996 19.1504C8.79996 19.896 9.40438 20.5004 10.15 20.5004C10.8955 20.5004 11.5 19.896 11.5 19.1504V12.8658C10.6251 12.995 9.81176 13.3098 9.09981 13.7688C8.76235 13.9864 8.3216 13.9541 8.01945 13.6896C7.38576 13.1351 6.55811 12.8 5.64997 12.8C4.82398 12.8 4.06526 13.0771 3.45814 13.5439C3.19208 13.7484 2.83429 13.788 2.52998 13.6464C2.22568 13.5049 2.02542 13.2057 2.01047 12.8705C2.00351 12.7144 2 12.5576 2 12.4Z" fill="#16D4B1"/>
</svg>
