<svg width="81" height="80" viewBox="0 0 81 80" fill="none" xmlns="http://www.w3.org/2000/svg">
<path d="M33.4836 24.3673C34.271 22.3914 36.1566 21 38.3574 21C41.2661 21 43.6242 23.4305 43.6242 26.4286C43.6242 29.4267 41.2661 31.8571 38.3574 31.8571H19M44.4276 55.6327C45.2151 57.6086 47.1006 59 49.3015 59C52.2102 59 54.5682 56.5695 54.5682 53.5714C54.5682 50.5733 52.2102 48.1429 49.3015 48.1429H29.9441M50.4642 32.5102C51.2823 30.5343 53.2413 29.1429 55.528 29.1429C58.5501 29.1429 61 31.5733 61 34.5714C61 37.5695 58.5501 40 55.528 40H24.472" stroke="#E0E0E0" stroke-width="5" stroke-linecap="round" stroke-linejoin="round"/>
</svg>
