<svg width="25" height="25" viewBox="0 0 25 25" fill="none" xmlns="http://www.w3.org/2000/svg">
<path d="M8 7.13014V7.88014C8.26368 7.88014 8.50799 7.74167 8.64345 7.51545L8 7.13014ZM9.575 4.5V3.75C9.31132 3.75 9.06701 3.88846 8.93155 4.11468L9.575 4.5ZM15.425 4.5L16.0685 4.11468C15.933 3.88846 15.6887 3.75 15.425 3.75V4.5ZM17 7.13014L16.3565 7.51545C16.492 7.74167 16.7363 7.88014 17 7.88014V7.13014ZM3.5 18.3082H4.25V9.32192H3.5H2.75V18.3082H3.5ZM5.75 7.13014V7.88014H8V7.13014V6.38014H5.75V7.13014ZM8 7.13014L8.64345 7.51545L10.2185 4.88532L9.575 4.5L8.93155 4.11468L7.35655 6.74482L8 7.13014ZM9.575 4.5V5.25H15.425V4.5V3.75H9.575V4.5ZM15.425 4.5L14.7815 4.88532L16.3565 7.51545L17 7.13014L17.6435 6.74482L16.0685 4.11468L15.425 4.5ZM17 7.13014V7.88014H19.25V7.13014V6.38014H17V7.13014ZM21.5 9.32192H20.75V18.3082H21.5H22.25V9.32192H21.5ZM21.5 18.3082H20.75C20.75 19.0861 20.0971 19.75 19.25 19.75V20.5V21.25C20.8882 21.25 22.25 19.9513 22.25 18.3082H21.5ZM19.25 7.13014V7.88014C20.0971 7.88014 20.75 8.54406 20.75 9.32192H21.5H22.25C22.25 7.6788 20.8882 6.38014 19.25 6.38014V7.13014ZM3.5 9.32192H4.25C4.25 8.54406 4.90292 7.88014 5.75 7.88014V7.13014V6.38014C4.1118 6.38014 2.75 7.6788 2.75 9.32192H3.5ZM5.75 20.5V19.75C4.90292 19.75 4.25 19.0861 4.25 18.3082H3.5H2.75C2.75 19.9513 4.1118 21.25 5.75 21.25V20.5ZM15.875 13.2671H15.125C15.125 14.6502 13.9684 15.8048 12.5 15.8048V16.5548V17.3048C14.7595 17.3048 16.625 15.5155 16.625 13.2671H15.875ZM12.5 16.5548V15.8048C11.0316 15.8048 9.875 14.6502 9.875 13.2671H9.125H8.375C8.375 15.5155 10.2405 17.3048 12.5 17.3048V16.5548ZM9.125 13.2671H9.875C9.875 11.884 11.0316 10.7295 12.5 10.7295V9.97945V9.22945C10.2405 9.22945 8.375 11.0188 8.375 13.2671H9.125ZM12.5 9.97945V10.7295C13.9684 10.7295 15.125 11.884 15.125 13.2671H15.875H16.625C16.625 11.0188 14.7595 9.22945 12.5 9.22945V9.97945ZM19.25 20.5V19.75H5.75V20.5V21.25H19.25V20.5Z" fill="#B4B4B4"/>
</svg>
