<svg width="24" height="24" viewBox="0 0 24 24" fill="none" xmlns="http://www.w3.org/2000/svg">
<path d="M8.61747 11.5707L8.37992 12.5421C8.85436 12.6581 9.34319 12.4145 9.53613 11.9658L8.61747 11.5707ZM4.37484 11.6394C4.60102 12.1432 5.19283 12.3683 5.69667 12.1421C6.20052 11.9159 6.42561 11.3241 6.19943 10.8203L4.37484 11.6394ZM7.06534 7.01581L6.6889 6.08936L7.06534 7.01581ZM5.93211 6.9332C6.1583 7.43704 6.7501 7.66213 7.25395 7.43595C7.75779 7.20977 7.98288 6.61797 7.7567 6.11412L5.93211 6.9332ZM7.09391 4.63768C6.86773 4.13383 6.27593 3.90874 5.77208 4.13492C5.26824 4.3611 5.04314 4.95291 5.26933 5.45675L7.09391 4.63768ZM9.15169 6.1011C8.93698 6.60994 9.17541 7.1965 9.68425 7.41121C10.1931 7.62593 10.7796 7.3875 10.9944 6.87866L9.15169 6.1011ZM11.623 5.38878C11.8378 4.87994 11.5993 4.29338 11.0905 4.07867C10.5817 3.86395 9.9951 4.10239 9.78038 4.61122L11.623 5.38878ZM3.37705 7.18697C2.86111 6.98991 2.28312 7.24841 2.08607 7.76435C1.88901 8.28028 2.14751 8.85827 2.66345 9.05533L3.37705 7.18697ZM4.22946 9.65345C4.74539 9.85051 5.32339 9.59201 5.52044 9.07607C5.7175 8.56014 5.459 7.98215 4.94306 7.78509L4.22946 9.65345ZM10.1571 8.4899C10.5409 8.88707 11.1739 8.89792 11.5711 8.51415C11.9683 8.13038 11.9791 7.49731 11.5954 7.10014L10.1571 8.4899ZM21 13.884H20C20 16.6629 17.6174 19 14.5714 19V20V21C18.627 21 22 17.8601 22 13.884H21ZM14.5714 7.76793V8.76793C17.6174 8.76793 20 11.105 20 13.884H21H22C22 9.9078 18.627 6.76793 14.5714 6.76793V7.76793ZM8.61747 11.5707L9.53613 11.9658C10.3341 10.11 12.2729 8.76793 14.5714 8.76793V7.76793V6.76793C11.4911 6.76793 8.81933 8.56989 7.6988 11.1757L8.61747 11.5707ZM7.5 11.4375V12.4375C7.80717 12.4375 8.10157 12.474 8.37992 12.5421L8.61747 11.5707L8.85501 10.5994C8.4202 10.493 7.96627 10.4375 7.5 10.4375V11.4375ZM3 15.7188H4C4 13.9528 5.51878 12.4375 7.5 12.4375V11.4375V10.4375C4.50912 10.4375 2 12.7556 2 15.7188H3ZM7.5 20V19C5.51878 19 4 17.4848 4 15.7188H3H2C2 18.6819 4.50912 21 7.5 21V20ZM14.5714 20V19H7.5V20V21H14.5714V20ZM5.28714 11.2298L6.19943 10.8203C5.71321 9.73718 6.2203 8.43856 7.44177 7.94225L7.06534 7.01581L6.6889 6.08936C4.48203 6.98606 3.39687 9.4608 4.37484 11.6394L5.28714 11.2298ZM6.84441 6.52366L7.7567 6.11412L7.09391 4.63768L6.18162 5.04721L5.26933 5.45675L5.93211 6.9332L6.84441 6.52366ZM10.073 6.48988L10.9944 6.87866L11.623 5.38878L10.7017 5L9.78038 4.61122L9.15169 6.1011L10.073 6.48988ZM3.02025 8.12115L2.66345 9.05533L4.22946 9.65345L4.58626 8.71927L4.94306 7.78509L3.37705 7.18697L3.02025 8.12115ZM7.06534 7.01581L7.44177 7.94225C8.413 7.54762 9.49838 7.8082 10.1571 8.4899L10.8762 7.79502L11.5954 7.10014C10.3722 5.83432 8.42049 5.38578 6.6889 6.08936L7.06534 7.01581Z" fill="#E0E0E0"/>
</svg>
